<?xml version="1.0" encoding="UTF-8" standalone="no"?>
<svg width="512px" height="512px" viewBox="0 0 512 512" version="1.1" xmlns="http://www.w3.org/2000/svg" xmlns:xlink="http://www.w3.org/1999/xlink" xmlns:sketch="http://www.bohemiancoding.com/sketch/ns">
    <!-- Generator: Sketch 3.3.2 (12043) - http://www.bohemiancoding.com/sketch -->
    <title>mediaHoundDog</title>
    <desc>Created with Sketch.</desc>
    <defs></defs>
    <g id="Style-Guide" stroke="none" stroke-width="1" fill="none" fill-rule="evenodd" sketch:type="MSPage">
        <g id="mediaHoundDog" sketch:type="MSArtboardGroup">
            <g sketch:type="MSLayerGroup" transform="translate(34.000000, 90.000000)">
                <path d="M90.7578222,25.315438 C76.0156087,29.5365257 55.4588184,25.0716928 55.4588184,25.0716928 L45.3482328,29.4884287 L36.1749675,41.2101891 L36.8719963,53.7474879 L60.3325169,62.0934693 L77.28499,70.3368211 L89.2427018,82.284 L81.463494,90.1791444 L72.6387431,95.5177135 L72.9872574,119.758446 L68.113559,139.721726 L33.5519382,172.691468 L14.2827616,200.18519 L26.6953764,243.329919 L48.0519707,276.719342 L81.4708312,294.45776 L138.911504,296.196964 L190.708078,280.271058 L216.136788,272.271451 L263.044989,267.281089 L307.515424,246.395976 L320.969913,203.962324 L343.718731,203.614117 L384.11705,209.179937 L441.104654,183.441913 L444.707192,165.564212 L429.842137,151.51496 L412.161452,142.73097 L404.728924,118.5947 L407.287753,94.1102226 L399.160031,66.5102051 L383.825398,58.7378496 L370.458955,54.8947396 L349.434366,61.155142 L310.169636,70.0949086 L283.922834,61.7470945 L237.242085,48.7552935 L188.94166,41.4521016 L165.919534,38.3933746 L160.348807,28.2898622 L131.803645,6.37845392 L111.822765,8.93319658" id="InnerFill" fill="#FFFFFF" sketch:type="MSShapeGroup"></path>
                <path d="M24.6794959,41.9626843 C11.4851083,66.821026 35.1052118,65.2306346 52.9201663,65.9732327 C70.6874294,66.7425877 72.6240688,75.7131432 79.7029447,85.0069846 C71.4339839,88.0532466 61.7460178,94.8245975 62.0732546,109.229018 C62.3759117,124.228696 66.0683299,125.268922 66.0683299,129.600625 C66.0683299,137.119445 51.4879556,149.82084 42.5388409,156.811014 C27.5516212,169.123625 22.7869704,172.46137 12.2683486,184.691058 C-2.72730813,202.653797 -2.27350572,216.364234 12.2683485,239.158025 C21.0418312,253.617289 37.0191068,274.254767 46.9202147,283.525875 C61.9169733,297.42081 78.4776429,305.06599 96.1212751,308.061673 C103.131183,309.22212 125.982079,310.488141 139.559378,307.333009 C181.249766,297.872391 184.15454,288.921262 205.62303,284.142396 C220.445893,280.997528 238.257133,282.525242 259.413459,280.36048 C303.680298,275.363166 315.435138,258.33949 320.388085,251.56118 C330.239291,239.200176 331.428646,218.952835 331.35895,216.381968 C331.384732,216.291813 340.238356,221.577586 360.962855,223.612217 C369.350817,224.234638 377.783948,223.948052 388.198337,222.67389 C402.135243,221.295355 419.172094,213.872031 435.224391,199.668834 C445.28889,190.406746 453.409046,178.41902 452.310079,169.534691 C451.032957,158.258957 440.380799,151.418058 437.612186,150.191036 C425.398604,144.585995 413.84134,142.386908 413.253954,121.320613 C413.257249,116.61138 413.885314,116.211496 414.494664,111.012942 C416.510606,96.3135842 413.247349,80.6969073 408.657965,72.0228767 C405.517667,65.6227332 397.794187,57.1177697 389.678963,53.5796138 C381.563738,50.0414579 375.78242,47.7037072 350.091398,55.8425967 C337.220928,59.7348237 318.516555,65.2236704 308.368724,65.0349068 C294.308589,65.0349023 286.418564,58.0132117 266.024599,50.1023077 C252.114118,44.8641668 233.458181,44.3988067 231.359529,44.3917051 C208.051621,44.5889004 197.535291,39.8796703 191.835432,37.9172467 C182.463695,34.7595555 174.886992,34.5572287 171.253638,35.0084322 C173.282726,30.8009873 158.7931,22.7574887 153.280928,18.3296642 C147.768756,13.9018396 135.733472,-0.430702349 121.625191,-0.1641797 C107.441701,-0.1641797 96.4572147,13.5085896 82.2789633,19.0435158 C76.8303491,20.9882412 75.0688643,21.0227999 68.4059987,21.0227999 C61.7431332,21.0227999 61.2261811,20.6131721 54.9973128,20.4889173 C45.6175061,20.2349089 33.1483953,28.7487629 24.6794959,41.9626843 Z M53.2769342,32.054167 C59.3245758,30.9593755 69.4911088,32.5329525 79.6168273,32.0541674 C98.7310058,31.3394259 106.209615,12.340131 123.291178,12.340131 C126.748581,12.3492944 132.263186,12.0019795 138.062919,16.8604127 C147.233663,24.5427383 160.210318,34.179607 160.318543,37.5269796 C159.597898,40.6383959 153.395259,44.9809086 152.735604,45.8069848 C152.075949,46.6330611 144.897928,53.7749779 154.864981,49.7806726 C159.317711,47.8669065 167.699252,44.9781596 174.561546,44.9781596 C180.345966,45.0569645 197.750132,53.015336 206.002359,53.2043302 C217.793377,53.6957149 229.969598,54.2762133 233.237838,54.7133052 C271.292627,59.6367745 283.942094,72.3559658 289.32779,74.1212856 C294.152878,76.1060678 300.032697,76.2948338 305.826048,76.2948328 C322.030589,76.3092651 330.79114,70.4298291 351.525455,65.6605333 C356.505542,64.3845364 367.726329,62.456338 372.461998,62.456338 C385.297184,62.4675631 399.358593,69.4307946 399.468194,100.333742 C399.468194,107.277348 398.379086,121.315758 398.379086,125.582673 C398.379086,129.849588 398.493039,133.065466 398.961931,134.921045 C400.520822,141.363123 401.791317,146.096441 412.125456,154.604843 C421.916415,162.850256 433.680612,164.122359 434.261622,171.810411 C433.37222,182.978476 403.493752,201.479749 372.461986,201.479749 C363.994472,201.462561 352.172499,200.447262 338.89135,193.719529 C323.653015,185.704573 318.007543,178.063941 312.249719,151.36743 C309.949521,141.419466 306.692049,136.411013 304.009405,137.424021 C301.326761,138.43703 303.217001,147.711482 306.491892,163.559271 C308.349107,174.812325 308.515112,182.105896 308.515112,185.764135 C310.396629,229.401165 281.595584,266.982143 228.275637,263.96029 C165.755595,260.253485 176.143162,285.774101 116.564856,288.603294 C114.906429,288.673852 77.3381831,288.3568 63.0390049,276.142509 C87.8307624,272.281989 103.210794,267.713599 103.210794,263.96029 C103.210794,260.206981 96.4874445,260.203316 96.6768319,260.206973 C93.4416096,260.206973 88.0472045,262.083636 74.6243566,262.083636 C65.2694049,261.939526 54.5407569,261.174173 47.730054,260.206981 C40.9193511,259.239789 37.5844639,257.661634 36.9545392,250.823708 C39.1300026,251.128848 51.2605959,253.049945 55.9861745,249.707612 C65.1814525,243.311134 75.381001,228.237877 75.4598726,217.514241 C75.4598726,208.824863 70.8195885,202.969017 58.5550936,202.030689 C46.2905986,201.092362 34.63646,201.048836 28.5021483,202.030689 C24.9541802,202.64051 21.8959665,204.810392 20.9912048,198.489054 C20.495227,195.018101 32.675606,179.771996 47.0222477,170.618494 C49.8708948,168.731754 65.4992409,160.094607 75.4598736,142.952265 C85.4205063,125.809924 77.8421554,119.170617 77.0281909,109.719077 C76.0256774,99.0753667 90.6805484,98.4339514 97.60842,95.2881715 C102.112742,92.8644648 112.937783,79.1904502 111.052593,75.4110265 C108.942477,71.7931069 101.03315,79.2039681 97.6084219,79.3191963 C90.4717875,79.471308 89.8926124,64.3821311 74.2292977,56.5952278 C65.6816386,52.5321973 56.4210154,52.8366497 53.8593209,52.8366507 C51.2976263,52.8366516 44.4367065,52.8366497 40.774898,52.4618686 C40.3766286,47.5459591 42.5965735,35.4546871 53.2769342,32.054167 Z M140.840221,96.3310463 C140.840221,92.8903179 139.665141,80.3074232 157.863931,88.4301416 C167.287688,92.6362738 264.065141,137.833425 275.355486,142.400361 C292.412083,149.299742 282.035956,159.90648 277.503076,162.095491 C242.862374,178.824119 166.398959,216.030614 157.863931,219.963511 C149.328904,223.896407 140.840221,226.852433 140.840221,207.607649 C140.840221,188.362865 140.840221,99.7717747 140.840221,96.3310463 Z M171.173352,153.48859 C171.173352,144.992431 181.509492,137.906266 190.526606,137.245443 C196.04476,136.815435 208.814757,142.897487 209.251017,158.389834 C209.251016,161.51823 208.848881,169.752929 198.382358,169.752929 C187.085923,169.752931 171.173352,161.98475 171.173352,153.48859 Z" id="MediaHound_Dog" fill="#000000" sketch:type="MSShapeGroup"></path>
            </g>
        </g>
    </g>
</svg>